<?xml version="1.0" ?>
<!-- Uploaded to: SVG Repo, www.svgrepo.com, Generator: SVG Repo Mixer Tools -->
<svg width="800px" height="800px" viewBox="0 0 200 200" id="Layer_1" version="1.1" xml:space="preserve" xmlns="http://www.w3.org/2000/svg" xmlns:xlink="http://www.w3.org/1999/xlink">
<style type="text/css">
	.st0{fill:#71A517;}
	.st1{fill:#FAD50A;}
	.st2{fill:#FAD50A;stroke:#2B2B2B;stroke-width:5;stroke-linecap:round;stroke-linejoin:round;stroke-miterlimit:10;}
	.st3{fill:#FFFFFF;stroke:#2B2B2B;stroke-width:5;stroke-linecap:round;stroke-linejoin:round;stroke-miterlimit:10;}
	.st4{fill:#7B3D72;}
	.st5{fill:#F2433B;}
	.st6{fill:#F2433B;stroke:#2B2B2B;stroke-width:6;stroke-linecap:round;stroke-linejoin:round;stroke-miterlimit:10;}
	.st7{fill:#FFFFFF;stroke:#2B2B2B;stroke-width:6;stroke-linecap:round;stroke-linejoin:round;stroke-miterlimit:10;}
	.st8{fill:#DE3727;stroke:#2B2B2B;stroke-width:6;stroke-linecap:round;stroke-linejoin:round;stroke-miterlimit:10;}
	.st9{fill:#8EBF04;}
	.st10{fill:#8EBF04;stroke:#2B2B2B;stroke-width:6;stroke-linecap:round;stroke-linejoin:round;stroke-miterlimit:10;}
	.st11{fill:#003A52;}
	.st12{fill:#7B3D72;stroke:#2B2B2B;stroke-width:6;stroke-linecap:round;stroke-linejoin:round;stroke-miterlimit:10;}
	.st13{fill:#2B2B2B;}
	.st14{fill:none;stroke:#2B2B2B;stroke-width:6;stroke-linecap:round;stroke-linejoin:round;stroke-miterlimit:10;}
	.st15{fill:#F78D0F;}
	.st16{fill:#F78D0F;stroke:#2B2B2B;stroke-width:6;stroke-linecap:round;stroke-linejoin:round;stroke-miterlimit:10;}
</style>
<circle class="st1" cx="100" cy="100" r="78.6"/>
<g>
<g>
<path class="st2" d="M47.9,103.6c17,4.2,66.3,11.6,97.9-33.2c1.7-2.5,4.9-3.8,7.8-2.9c2.7,0.8,5.1,3.1,3.7,9.4    c-2.8,12.7-35,89.6-113.8,36.3c-0.9-0.6-1.2-1.7-1.3-2.8c0-0.6-0.1-1.2-0.1-1.9C41.9,105.3,44.8,102.8,47.9,103.6z"/>
<path class="st2" d="M87.9,123.5c0,0,25.3,3.1,41-15.7"/>
</g>
<g>
<path class="st7" d="M56.6,124.6c17.6,0.6,67.3-2.6,88.8-53c1.2-2.8,4-4.7,7-4.5c2.8,0.2,5.6,2,5.6,8.5    c-0.1,13-15.4,94.9-103.6,59.3c-1-0.4-1.6-1.4-1.9-2.5c-0.2-0.5-0.3-1.2-0.5-1.8C51.1,127.6,53.4,124.5,56.6,124.6z"/>
<path class="st7" d="M99.9,135.8c0,0,25.3-2.3,36.8-23.9"/>
</g>
<line class="st7" x1="152.3" x2="154.8" y1="67.1" y2="56.2"/>
</g>
</svg>