<?xml version="1.0" ?>
<!-- Uploaded to: SVG Repo, www.svgrepo.com, Generator: SVG Repo Mixer Tools -->
<svg width="800px" height="800px" viewBox="0 0 200 200" id="Layer_1" version="1.1" xml:space="preserve" xmlns="http://www.w3.org/2000/svg" xmlns:xlink="http://www.w3.org/1999/xlink">
<style type="text/css">
	.st0{fill:#71A517;}
	.st1{fill:#FAD50A;}
	.st2{fill:#FAD50A;stroke:#2B2B2B;stroke-width:5;stroke-linecap:round;stroke-linejoin:round;stroke-miterlimit:10;}
	.st3{fill:#FFFFFF;stroke:#2B2B2B;stroke-width:5;stroke-linecap:round;stroke-linejoin:round;stroke-miterlimit:10;}
	.st4{fill:#7B3D72;}
	.st5{fill:#F2433B;}
	.st6{fill:#F2433B;stroke:#2B2B2B;stroke-width:6;stroke-linecap:round;stroke-linejoin:round;stroke-miterlimit:10;}
	.st7{fill:#FFFFFF;stroke:#2B2B2B;stroke-width:6;stroke-linecap:round;stroke-linejoin:round;stroke-miterlimit:10;}
	.st8{fill:#DE3727;stroke:#2B2B2B;stroke-width:6;stroke-linecap:round;stroke-linejoin:round;stroke-miterlimit:10;}
	.st9{fill:#8EBF04;}
	.st10{fill:#8EBF04;stroke:#2B2B2B;stroke-width:6;stroke-linecap:round;stroke-linejoin:round;stroke-miterlimit:10;}
	.st11{fill:#003A52;}
	.st12{fill:#7B3D72;stroke:#2B2B2B;stroke-width:6;stroke-linecap:round;stroke-linejoin:round;stroke-miterlimit:10;}
	.st13{fill:#2B2B2B;}
	.st14{fill:none;stroke:#2B2B2B;stroke-width:6;stroke-linecap:round;stroke-linejoin:round;stroke-miterlimit:10;}
	.st15{fill:#F78D0F;}
	.st16{fill:#F78D0F;stroke:#2B2B2B;stroke-width:6;stroke-linecap:round;stroke-linejoin:round;stroke-miterlimit:10;}
</style>
<g>
<circle class="st15" cx="100" cy="100" r="75.4"/>
<g>
<path class="st7" d="M107.1,116.6c-14.3,19.7-33.7,36.3-39.8,31.9c-6-4.4,3.6-28.1,17.9-47.8s20.4-17.9,26.4-13.5    C117.7,91.7,121.4,96.9,107.1,116.6z"/>
<path class="st16" d="M111.7,87.3c0,0,18.1-20.2,33.8-11S132.2,96.9,111.7,87.3z"/>
<path class="st16" d="M111.1,86.9c0,0,13.5-23.5-0.1-35.5S95.6,70.4,111.1,86.9z"/>
<path class="st16" d="M111.9,85.7c0,0,26.4-6.5,25.6-24.6S113.1,63,111.9,85.7z"/>
</g>
<line class="st7" x1="81" x2="90.9" y1="127.5" y2="135.6"/>
<line class="st7" x1="78.9" x2="85.9" y1="110.3" y2="114.4"/>
<line class="st7" x1="103.2" x2="110.6" y1="107.4" y2="111.5"/>
</g>
</svg>